<?xml version="1.0" encoding="utf-8"?>
<!-- Generator: Adobe Illustrator 24.3.0, SVG Export Plug-In . SVG Version: 6.00 Build 0)  -->
<svg version="1.1" id="Layer_1" xmlns="http://www.w3.org/2000/svg" xmlns:xlink="http://www.w3.org/1999/xlink" x="0px" y="0px"
	 viewBox="0 0 560 288" style="enable-background:new 0 0 560 288;" xml:space="preserve">
<style type="text/css">
	.st0{fill:none;stroke:#00E1FF;stroke-miterlimit:10;}
	.st1{fill:#00E1FF;}
</style>
<g>
	<path class="st1" d="M288.34,239.33c0-50.92,0-101.44,0-152.3c4.71,2.71,9.18,5.28,13.65,7.86c0.72,0.41,0.75,1.23,0.98,1.9
		c2.97,8.72,5.92,17.44,8.88,26.16c0.18,0.55,0.23,1.16,0.91,1.71c2.24-3.42,4.47-6.83,6.69-10.23c1.24-1.9,2.53-3.77,3.68-5.72
		c0.59-1,1.07-1.05,2.05-0.47c3.76,2.26,7.54,4.48,11.4,6.57c1.33,0.72,1.61,1.61,1.6,2.98c-0.04,10.97-0.02,21.95-0.03,32.92
		c0,19.24-0.02,38.48,0.03,57.72c0,1.59-0.46,2.48-1.88,3.26c-5.05,2.79-10.02,5.73-15,8.6c-0.77-0.42-0.46-1.08-0.46-1.6
		c-0.03-4.1,0.06-8.2-0.05-12.29c-0.04-1.57,0.28-2.7,1.82-3.29c1.03-0.4,1.3-1.16,1.3-2.25c-0.03-20.92-0.02-41.85-0.03-62.77
		c0-0.33-0.07-0.67-0.16-1.56c-3.86,5.42-7.42,10.44-11.17,15.71c-3.28-6.28-6.41-12.28-9.57-18.32c-0.89,0.56-0.54,1.28-0.54,1.85
		c-0.02,25.6-0.01,51.21-0.04,76.81c0,1.48,0.12,2.4,1.8,1.22c1.1-0.77,1.35-0.25,1.34,0.83c-0.02,4.54-0.01,9.07,0,13.61
		c0,0.69-0.1,1.26-0.79,1.65C299.38,232.97,294.02,236.07,288.34,239.33z"/>
	<path class="st1" d="M236.16,147.17c0,5.53,0.01,10.63-0.01,15.73c0,1.05,0.86,1.24,1.49,1.69c0.62,0.45,1.56,0.63,1.56,1.65
		c0.01,5.09,0,10.18,0,15.65c-4.93-2.84-9.45-5.64-14.16-8.08c-2.48-1.28-3.24-2.82-3.23-5.6c0.12-29.55,0.09-59.09,0.03-88.64
		c0-1.85,0.56-2.81,2.19-3.74c15.43-8.8,30.79-17.71,46.17-26.59c0.42-0.24,0.77-0.7,1.39-0.55c0.42,0.67,0.21,1.41,0.21,2.11
		c0.01,20.4-0.01,40.81,0.04,61.21c0,1.58-0.43,2.45-1.85,3.26c-9.73,5.52-19.39,11.15-29.07,16.74c-0.3,0.18-0.59,0.39-1.17,0.78
		c3.96,2.29,7.71,4.47,11.46,6.64c6.45,3.73,12.9,7.47,19.38,11.17c0.86,0.49,1.25,1.02,1.24,2.04
		c-0.04,15.72-0.04,31.45-0.05,47.17c0,0.14-0.07,0.28-0.18,0.73c-2.25-1.27-4.44-2.49-6.61-3.74c-3.04-1.75-6.05-3.56-9.12-5.24
		c-1.05-0.57-1.43-1.24-1.42-2.41c0.05-4.24,0.05-8.48,0-12.72c-0.02-1.44,0.2-2.2,1.75-1.15c1,0.68,1.42,0.38,1.41-0.81
		c-0.02-4.61-0.02-9.21,0-13.82c0-0.85-0.4-1.34-1.08-1.73C249.9,155.1,243.26,151.26,236.16,147.17z M236.53,118.15
		c6.74-3.91,13.48-7.83,20.24-11.72c0.99-0.57,0.84-1.44,0.84-2.3c0.01-9.65-0.03-19.31,0.03-28.96c0.01-2.01-0.54-2.04-2.08-1.13
		c-5.92,3.49-11.86,6.93-17.85,10.31c-1.28,0.72-1.61,1.59-1.61,2.98c0.06,9.58,0.02,19.16,0.04,28.74
		C236.16,116.69,235.96,117.36,236.53,118.15z"/>
	<rect x="279.49" y="70.83" class="st1" width="0.86" height="155.6"/>
</g>
</svg>
