<svg id="Layer_1" data-name="Layer 1" xmlns="http://www.w3.org/2000/svg" viewBox="0 0 560 288"><defs><style>.cls-1{fill:none;stroke:#00e1ff;stroke-miterlimit:10;}.cls-2{fill:#00e1ff;}</style></defs><path class="cls-1" d="M284.9,238.87V86.57l13.65,7.86c.72.41.75,1.23,1,1.9q4.44,13.08,8.87,26.16a2.91,2.91,0,0,0,.92,1.71L316,114c1.24-1.89,2.53-3.76,3.68-5.71.59-1,1.07-1,2-.47,3.77,2.26,7.55,4.49,11.4,6.57a2.86,2.86,0,0,1,1.61,3c-.05,11,0,22,0,32.92,0,19.24,0,38.48,0,57.72a3.22,3.22,0,0,1-1.88,3.27c-5.05,2.79-10,5.73-15,8.6-.77-.42-.45-1.08-.46-1.6,0-4.1.06-8.2-.05-12.29,0-1.57.28-2.7,1.82-3.29a2.06,2.06,0,0,0,1.3-2.25q0-31.38,0-62.77c0-.33-.07-.67-.17-1.56l-11.17,15.71c-3.28-6.29-6.41-12.28-9.56-18.33-.9.56-.54,1.28-.54,1.85q0,38.4,0,76.81c0,1.48.12,2.4,1.79,1.22,1.1-.76,1.35-.25,1.35.83,0,4.54,0,9.07,0,13.61a1.62,1.62,0,0,1-.79,1.65C295.94,232.5,290.57,235.6,284.9,238.87Z"/><path class="cls-1" d="M232.71,146.7c0,5.53,0,10.63,0,15.73,0,1,.87,1.24,1.49,1.69s1.56.63,1.56,1.65c0,5.09,0,10.18,0,15.65-4.93-2.84-9.45-5.64-14.16-8.07-2.48-1.28-3.24-2.82-3.23-5.61q.18-44.31,0-88.63a3.7,3.7,0,0,1,2.19-3.75c15.42-8.8,30.79-17.71,46.17-26.58.42-.25.77-.7,1.39-.55a3.63,3.63,0,0,1,.21,2.11c0,20.4,0,40.81.05,61.21a3.2,3.2,0,0,1-1.85,3.26c-9.73,5.51-19.39,11.14-29.08,16.74-.3.17-.58.39-1.17.78L247.77,139c6.46,3.73,12.9,7.48,19.38,11.17a2.07,2.07,0,0,1,1.24,2q-.06,23.59,0,47.17a4,4,0,0,1-.19.73l-6.61-3.73c-3-1.75-6-3.57-9.12-5.25a2.37,2.37,0,0,1-1.42-2.41c.06-4.24.05-8.48,0-12.72,0-1.44.21-2.21,1.75-1.15,1,.68,1.42.37,1.42-.81,0-4.61,0-9.22,0-13.83a1.85,1.85,0,0,0-1.09-1.73Zm.38-29q10.11-5.87,20.23-11.71c1-.57.85-1.44.85-2.3,0-9.65,0-19.31,0-29,0-2-.54-2-2.07-1.14q-8.88,5.24-17.85,10.31a2.92,2.92,0,0,0-1.61,3c.06,9.58,0,19.16,0,28.75A2.81,2.81,0,0,0,233.09,117.68Z"/><rect class="cls-2" x="276.05" y="70.37" width="0.86" height="155.6"/></svg>